<svg width="26" height="24" viewBox="0 0 26 24" fill="none" xmlns="http://www.w3.org/2000/svg">
<path opacity="0.2" id="svg_1" fill="#FFC844" d="m23.24765,9.89028c0.3369,-0.06596 0.63986,-0.24189 0.85743,-0.49802c0.21764,-0.25613 0.33668,-0.57674 0.33683,-0.90756l0,-2.22543c0,-0.38063 -0.15715,-0.74568 -0.43692,-1.01482c-0.27977,-0.26915 -0.65918,-0.42036 -1.05478,-0.42036l-17.9004,0c-0.39562,0 -0.77504,0.1512 -1.05479,0.42036c-0.27975,0.26915 -0.43691,0.63419 -0.43691,1.01482l0,2.22543c0.00019,0.33082 0.11916,0.65143 0.3368,0.90756c0.21763,0.25614 0.52055,0.43206 0.8575,0.49802c0.50383,0.10053 0.95625,0.36505 1.28106,0.74899c0.3248,0.38395 0.50214,0.86388 0.50214,1.35893c0,0.49507 -0.17734,0.97499 -0.50214,1.3589c-0.3248,0.38398 -0.77723,0.64849 -1.28106,0.74902c-0.33757,0.06609 -0.64098,0.24255 -0.85867,0.49944c-0.21771,0.25683 -0.33629,0.57831 -0.33562,0.90976l0,2.22539c0,0.38061 0.15717,0.74565 0.43691,1.01482c0.27975,0.26917 0.65917,0.42037 1.05479,0.42037l17.9004,0c0.3956,0 0.77501,-0.1512 1.05478,-0.42037c0.27977,-0.26917 0.43692,-0.63421 0.43692,-1.01482l0,-2.22539c-0.00015,-0.33088 -0.11919,-0.6515 -0.33683,-0.90761c-0.21756,-0.25611 -0.52053,-0.43206 -0.85743,-0.49801c-0.5039,-0.10053 -0.95625,-0.36504 -1.28107,-0.74902c-0.32482,-0.38391 -0.50218,-0.86384 -0.50218,-1.3589c0,-0.49505 0.17736,-0.97498 0.50218,-1.35893c0.32482,-0.38395 0.77718,-0.64847 1.28107,-0.74899l0,-0.00359z"/>
  <path id="vector2" fill="#FFC844" d="m23.24765,9.89028c0.3369,-0.06596 0.63986,-0.24189 0.85743,-0.49802c0.21764,-0.25613 0.33668,-0.57674 0.33683,-0.90756l0,-2.22543c0,-0.38063 -0.15715,-0.74568 -0.43692,-1.01482c-0.27977,-0.26915 -0.65918,-0.42036 -1.05478,-0.42036l-17.9004,0c-0.39562,0 -0.77504,0.1512 -1.05479,0.42036c-0.27975,0.26915 -0.43691,0.63419 -0.43691,1.01482l0,2.22543c0.00019,0.33082 0.11916,0.65143 0.3368,0.90756c0.21763,0.25614 0.52055,0.43206 0.8575,0.49802c0.50383,0.10053 0.95625,0.36505 1.28106,0.74899c0.3248,0.38395 0.50214,0.86388 0.50214,1.35893c0,0.49507 -0.17734,0.97499 -0.50214,1.3589c-0.3248,0.38398 -0.77723,0.64849 -1.28106,0.74902c-0.33757,0.06609 -0.64098,0.24255 -0.85867,0.49944c-0.21771,0.25683 -0.33629,0.57831 -0.33562,0.90976l0,2.22539c0,0.38061 0.15717,0.74565 0.43691,1.01482c0.27975,0.26917 0.65917,0.42037 1.05479,0.42037l17.9004,0c0.3956,0 0.77501,-0.1512 1.05478,-0.42037c0.27977,-0.26917 0.43692,-0.63421 0.43692,-1.01482l0,-2.22539c-0.00015,-0.33088 -0.11919,-0.6515 -0.33683,-0.90761c-0.21756,-0.25611 -0.52053,-0.43206 -0.85743,-0.49801c-0.5039,-0.10053 -0.95625,-0.36504 -1.28107,-0.74902c-0.32482,-0.38391 -0.50218,-0.86384 -0.50218,-1.3589c0,-0.49505 0.17736,-0.97498 0.50218,-1.35893c0.32482,-0.38395 0.77718,-0.64847 1.28107,-0.74899l0,-0.00359zm-18.19785,5.62592c0.84253,-0.16512 1.59986,-0.60529 2.1438,-1.24595c0.54393,-0.64074 0.84105,-1.44257 0.84105,-2.26981c0,-0.82723 -0.29712,-1.62908 -0.84105,-2.26976c-0.54393,-0.64068 -1.30127,-1.08084 -2.1438,-1.24598l0,-2.22543l5.22095,0l0,11.48146l-5.22095,0l0,-2.22453z"/>
</svg>